<?xml version="1.0" encoding="UTF-8" standalone="no"?>
<svg
   xmlns:dc="http://purl.org/dc/elements/1.1/"
   xmlns:cc="http://creativecommons.org/ns#"
   xmlns:rdf="http://www.w3.org/1999/02/22-rdf-syntax-ns#"
   xmlns:svg="http://www.w3.org/2000/svg"
   xmlns="http://www.w3.org/2000/svg"
   xmlns:xlink="http://www.w3.org/1999/xlink"
   xmlns:sodipodi="http://sodipodi.sourceforge.net/DTD/sodipodi-0.dtd"
   xmlns:inkscape="http://www.inkscape.org/namespaces/inkscape"
   width="336.737"
   height="433.145"
   viewBox="0 0 89.095 114.603"
   version="1.1"
   id="svg380"
   sodipodi:docname="Seal_of_the_City_of_Semarang (1).svg"
   inkscape:version="1.0.1 (3bc2e813f5, 2020-09-07)">
  <metadata
     id="metadata384">
    <rdf:RDF>
      <cc:Work
         rdf:about="">
        <dc:format>image/svg+xml</dc:format>
        <dc:type
           rdf:resource="http://purl.org/dc/dcmitype/StillImage" />
      </cc:Work>
    </rdf:RDF>
  </metadata>
  <sodipodi:namedview
     pagecolor="#ffffff"
     bordercolor="#666666"
     borderopacity="1"
     objecttolerance="10"
     gridtolerance="10"
     guidetolerance="10"
     inkscape:pageopacity="0"
     inkscape:pageshadow="2"
     inkscape:window-width="1366"
     inkscape:window-height="705"
     id="namedview382"
     showgrid="false"
     inkscape:zoom="0.51938147"
     inkscape:cx="194.61731"
     inkscape:cy="186.1446"
     inkscape:window-x="-8"
     inkscape:window-y="-8"
     inkscape:window-maximized="1"
     inkscape:current-layer="svg380" />
  <style
     id="style2"><![CDATA[.d{fill:#fff}.e{fill:#fecc00}.f{stroke:#b99500}.g{fill:red}.h{stroke-width:.179}.i{opacity:.994}.j{stroke:silver}.k{stroke:#ddd}.l{stroke-width:.507}.m{stroke-width:.265}.n{opacity:.997}.o{stroke-width:.1}.p{fill:#e9e9e9}.q{stroke:#c5c5c5}.r{fill:#23682b}.s{stroke:#1f4b1f}.t{opacity:.996}.u{fill:silver}.v{fill:#dcdcdc}.w{stroke-width:.197}.x{opacity:.993}.y{fill-rule:evenodd}.z{opacity:.999}.AA{fill:#f5f5f5}.AB{color-interpolation-filters:sRGB}.AC{stroke-width:.465}]]></style>
  <defs
     id="defs36">
    <filter
       x="-1751.391"
       width="3503.782"
       y="-.002"
       height="1.004"
       class="AB"
       id="filter6">
      <feGaussianBlur
         stdDeviation=".007"
         id="feGaussianBlur4" />
    </filter>
    <linearGradient
       id="B"
       x1="36.668"
       y1="138.042"
       x2="43.283"
       y2="137.978"
       gradientUnits="userSpaceOnUse">
      <stop
         offset="0"
         stop-color="#dcdcdc"
         id="stop8" />
      <stop
         offset="1"
         stop-color="#fff"
         id="stop10" />
    </linearGradient>
    <path
       id="C"
       d="M143.625 137.035c.227-.428.634-1.165 1.267-1.437.598-.257 1.418-.059 1.757-.17 1.072-.349.834-1.733 2.469-1.701l.248 1.606c-.241-.265-.615-.485-1.095-.259-.474.223-.928.914-1.193.999-.606.194-1.168-.303-2.093-.007-.85.272-.889.626-1.36.968z" />
    <path
       id="D"
       d="M149.29 134.846c.263-.461.723-.613.983-.504.088.13.155.298.421.195.294-.095.184-.93-.514-.862-.391.061-.446.329-.669.414s-.247-.097-.364-.168z" />
    <path
       id="E"
       d="M143.625 137.035c.227-.428.634-1.165 1.267-1.437.598-.257 1.418-.059 1.757-.17 1.072-.349.834-1.733 2.469-1.701l.248 1.606c-.124-.803-.782-.913-1.262-.688-.474.223-.92.975-1.184 1.06-.606.194-1.018-.152-1.943.143-.85.272-.88.843-1.351 1.185z" />
    <path
       id="F"
       d="M152.328 137.776c-.095 0-.364.095-.249.35l-.157-.037c.219.357.38.812.301 1.367-.211.196-.049.361.104.372.153-.011.316-.177.105-.372-.079-.556.081-1.011.301-1.367l-.157.037c.116-.256-.154-.35-.249-.35z" />
    <radialGradient
       id="G"
       cx="167.257"
       cy="106.764"
       fx="167.257"
       fy="106.764"
       r="89.497"
       gradientTransform="matrix(0.22982629,0,0,0.24221454,2.7972438,72.024412)"
       gradientUnits="userSpaceOnUse">
      <stop
         offset="0"
         stop-color="#ff8c00"
         id="stop17" />
      <stop
         offset="1"
         stop-color="#e31e24"
         id="stop19" />
    </radialGradient>
    <filter
       id="H"
       x="0"
       width="1"
       y="0"
       height="1"
       class="AB">
      <feGaussianBlur
         stdDeviation="0"
         id="feGaussianBlur22" />
    </filter>
    <linearGradient
       xlink:href="#B"
       id="I"
       gradientTransform="translate(3.059,-74.058)" />
    <linearGradient
       xlink:href="#B"
       id="J"
       x1="38.498"
       y1="100.153"
       x2="44.48"
       y2="100.153"
       gradientTransform="translate(3.059,-74.058)" />
    <path
       id="K"
       d="M39.888 91.269l-1.056 1.064c.218.018.421-.195.63.125s.028.719.477 1.166a.92.92 0 0 0 1.433-.159.471.471 0 0 0-.077-.691.471.471 0 0 0-.627.066c-.433-.117-.872-.739-.78-1.571z" />
    <path
       id="L"
       d="M3.958 141.341c.648-.075 1.664-.193 2.057.297-.337-.861.3-2.181.743-2.181 1.052.793 1.099 1.586 1.115 2.379.739-.185 1.172-.065 1.735-.074-.443.503-.442 1.252-1.413 1.462.869.359.737 1.319 1.016 2.032.01.435-1.967-.069-2.354-.892-.605.783-2.194 1.307-2.305 1.041.097-.769.066-1.589.793-2.106-.944-.171-1.062-1.168-1.388-1.958z" />
    <path
       id="M"
       d="M4.887 142.035c.418.296 1.051.822 1.648.88-.639.425-.91 1.155-1.363 1.735.546-.524 1.318-.854 1.636-1.574.308.631.99.951 1.487 1.425-.437-.521-.62-1.169-1.313-1.561.773-.012 1.492-.494 2.057-.743-.586.144-1.488.042-2.106.446.275-.809-.14-1.553-.223-2.33-.03.765-.208 1.623-.111 2.292-.271-.268-1.223-.563-1.784-.669z" />
    <path
       id="N"
       d="M5.556 137.017c-.245-.292-.563-1.276.235-1.623.378-1.387 2.066-.835 2.094-.087 1.137.249.805 1.593.533 2.181l-1.623.483z" />
    <path
       id="O"
       d="M5.296 136.819c-.092 1.786.845 1.983 1.821 2.119 1.931-.259 1.248-1.372 1.648-2.131-.395.104-.812-.013-1.177.384-.08-.299-.389-.46-.62-.669-.214.223-.552.359-.558.731-.397-.319-.749-.327-1.115-.434z" />
    <path
       id="P"
       d="M6.816 135.145c-.423-.054-.394.583-.782.603-.403.095-.379.631-.074.824.397.245.628-.344 1.019-.317.384-.019.694.504 1.091.205.412-.342-.172-.664-.502-.678-.361-.087-.314-.705-.751-.637z" />
    <path
       id="Q"
       d="M74.658 135.43c1.603 1.395 1.614 4.13.982 5.656-1.548-1.5-1.767-4.029-.982-5.656z" />
    <path
       id="R"
       d="M74.903 137.178c.501.66.458 1.32.263 1.98-.298-.526-.475-1.129-.263-1.98z" />
    <path
       id="S"
       d="M8.629 147.038c-1.063 0-1.927.442-2.768.836-.515.241-1.022.466-1.577.6l.227.729c.618-.156 1.166-.4 1.673-.638.853-.399 1.596-.762 2.444-.762s1.592.352 2.443.744 1.812.816 3.033.816 2.18-.424 3.031-.816 1.594-.744 2.445-.744 1.594.352 2.445.744 1.81.816 3.031.816 2.18-.424 3.031-.816 1.594-.744 2.445-.744 1.594.352 2.445.744 1.81.816 3.031.816 2.18-.424 3.031-.816 1.594-.744 2.445-.744 1.59.362 2.443.762 1.813.821 3.033.797c1.221.025 2.184-.398 3.035-.797s1.596-.762 2.444-.762 1.59.362 2.443.762 1.812.821 3.033.797c1.22.024 2.183-.399 3.033-.797s1.595-.762 2.443-.762 1.59.362 2.443.762 1.809.819 3.026.797v.002l.016-.002c1.217.023 2.177-.399 3.026-.797s1.595-.762 2.443-.762 1.59.362 2.443.762c.502.235 1.045.477 1.654.633l.227-.729c-.547-.134-1.049-.357-1.558-.595-.841-.394-1.704-.836-2.767-.836s-1.927.442-2.768.836-1.66.747-2.701.725l-.008.383-.008-.383c-1.041.023-1.86-.331-2.701-.725s-1.705-.836-2.768-.836-1.926.442-2.767.836-1.66.747-2.701.725h-.008-.009c-1.041.023-1.859-.331-2.7-.725s-1.704-.836-2.767-.836-1.927.442-2.768.836-1.66.747-2.701.725h-.01-.008c-1.041.023-1.86-.331-2.701-.725s-1.705-.836-2.768-.836-1.921.428-2.764.816-1.667.744-2.713.744-1.868-.356-2.71-.744-1.706-.816-2.766-.816-1.923.428-2.766.816-1.665.744-2.711.744-1.869-.356-2.711-.744-1.706-.816-2.766-.816-1.923.428-2.766.816-1.665.744-2.711.744-1.87-.356-2.712-.744-1.704-.816-2.764-.816z" />
  </defs>
  <g
     class="y"
     id="g50"
     transform="translate(3.059,-74.058)">
    <path
       d="m -2.558,74.58 v 68.482 c 0,11.644 7.37,34.13 44.076,45.1 36.706,-10.97 44.076,-33.456 44.076,-45.1 V 74.58 H 71.566 11.469 Z"
       class="d n"
       id="path38" />
    <path
       d="m 18.34,80.096 h 46.356 v 60.793 c 0,-0.065 -0.019,0.242 -0.107,0.644 a 12.6,12.6 0 0 1 -0.494,1.644 c -0.506,1.367 -1.41,3.238 -2.996,5.411 -3.122,4.275 -8.945,9.726 -19.58,14.775 -10.635,-5.049 -16.459,-10.501 -19.58,-14.775 -1.587,-2.173 -2.49,-4.043 -2.996,-5.411 a 12.6,12.6 0 0 1 -0.494,-1.644 c -0.088,-0.402 -0.107,-0.709 -0.107,-0.644 z"
       fill="url(#G)"
       class="n"
       id="path40"
       style="fill:url(#G);" />
    <path
       d="m 3.412,81.357 v 61.705 c 0,8.773 7.494,26.597 38.105,38.756 30.611,-12.159 38.105,-29.983 38.105,-38.756 V 81.357 h -6.795 v 59.531 c 0,2.494 -1.166,7.348 -5.596,13.131 -4.43,5.783 -12.132,12.384 -25.213,18.055 a 1.262,1.262 0 0 1 -1.004,0 c -13.081,-5.67 -20.783,-12.272 -25.213,-18.055 -4.43,-5.783 -5.596,-10.637 -5.596,-13.131 V 81.357 Z"
       class="n"
       id="path42" />
    <g
       class="e"
       id="g48">
      <path
         d="m -2.558,74.58 v 68.482 c 0,11.644 7.37,34.13 44.076,45.1 36.706,-10.97 44.076,-33.456 44.076,-45.1 V 74.58 H 71.566 11.469 Z m 4.709,5.515 h 9.318 v 60.793 c 0,4.131 4.21,18.826 30.049,30.027 25.839,-11.2 30.049,-25.896 30.049,-30.027 V 80.096 h 9.318 v 62.966 c 0,9.527 -8.004,27.848 -39.367,40.14 C 10.154,170.91 2.15,152.589 2.15,143.062 Z m 16.189,0 h 46.356 v 60.793 c 0,-0.065 -0.019,0.242 -0.107,0.644 a 12.6,12.6 0 0 1 -0.494,1.644 c -0.506,1.367 -1.41,3.238 -2.996,5.411 -3.122,4.275 -8.945,9.726 -19.58,14.775 -10.635,-5.049 -16.459,-10.501 -19.58,-14.775 -1.587,-2.173 -2.49,-4.043 -2.996,-5.411 a 12.6,12.6 0 0 1 -0.494,-1.644 c -0.088,-0.402 -0.107,-0.709 -0.107,-0.644 z"
         stroke-linejoin="round"
         class="f n"
         id="path44" />
      <path
         d="m 41.49,82.745 -2.598,7.995 h -8.406 l 6.801,4.941 -2.598,7.995 6.801,-4.941 6.801,4.941 -2.598,-7.995 6.802,-4.941 h -8.407 z"
         class="z"
         id="path46" />
    </g>
  </g>
  <g
     id="g1693">
    <g
       fill="#ffe680"
       id="g62"
       transform="translate(3.059,-74.058)">
      <path
         d="M 30.485,90.74 41.489,94.316 38.891,90.74 Z"
         id="path52" />
      <path
         d="m 41.489,82.744 v 11.571 l 2.598,-3.576 z"
         id="path54" />
      <path
         d="M 41.489,94.316 52.493,90.74 45.691,95.681 Z"
         id="path56" />
      <path
         d="m 41.489,98.735 v -4.42 l 6.801,9.361 z"
         id="path58" />
      <path
         d="m 34.688,103.677 2.598,-7.995 4.203,-1.366 z"
         id="path60" />
    </g>
    <g
       stroke="#ca0000"
       stroke-width="0.2"
       class="d"
       id="g74"
       transform="translate(3.059,-74.058)">
      <path
         d="m 30.915,90.74 -0.472,0.125 11.004,3.576 0.082,-0.252 z"
         id="path64" />
      <path
         d="m 41.596,94.238 -0.215,0.154 6.564,9.033 0.451,0.174 z"
         id="path66" />
      <path
         d="m 41.383,94.238 -6.803,9.362 0.454,-0.174 6.562,-9.033 z"
         id="path68" />
      <path
         d="m 41.357,82.744 v 11.572 h 0.264 V 83.151 Z"
         id="path70" />
      <path
         d="m 52.063,90.74 -10.616,3.45 0.082,0.252 11.004,-3.576 z"
         id="path72" />
    </g>
    <g
       transform="translate(2.994,-74.058)"
       class="j"
       id="g116">
      <g
         transform="matrix(0.865253,0,0,0.865253,5.601297,12.663009)"
         id="g84">
        <g
           class="d"
           id="g80">
          <path
             id="use76"
             d="m 39.888,91.269 -1.056,1.064 c 0.218,0.018 0.421,-0.195 0.63,0.125 0.209,0.32 0.028,0.719 0.477,1.166 a 0.92,0.92 0 0 0 1.433,-0.159 0.471,0.471 0 0 0 -0.077,-0.691 0.471,0.471 0 0 0 -0.627,0.066 c -0.433,-0.117 -0.872,-0.739 -0.78,-1.571 z"
             style="opacity:0.996;stroke-width:0.16;" />
          <path
             id="use78"
             d="m 34.60853,83.099327 c -0.108795,0.768314 -0.275256,2.106493 0.288912,3.054892 0.532936,0.896012 1.781903,1.411436 2.116678,1.874423 1.060533,1.461475 -0.550841,3.0308 1.597923,4.528614 l 1.833336,-1.847579 c -0.561774,0.116497 -1.253525,0.04947 -1.662741,-0.69528 -0.404266,-0.735214 -0.342016,-2.058035 -0.60538,-2.417663 -0.602614,-0.821908 -1.798758,-0.706992 -2.718706,-1.961395 -0.845356,-1.152695 -0.562618,-1.648126 -0.850963,-2.534716 z"
             style="stroke-width:0.16017;" />
        </g>
        <path
           id="use82"
           d="m 34.60853,83.099327 c -0.108795,0.768314 -0.275256,2.106493 0.288912,3.054892 0.532936,0.896012 1.781903,1.411436 2.116678,1.874423 1.060533,1.461475 -0.550841,3.0308 1.597923,4.528614 l 1.833336,-1.847579 c -0.916668,0.923789 -1.872866,0.44685 -2.283025,-0.296604 -0.404266,-0.735214 -0.27422,-2.129546 -0.536288,-2.488234 C 37.023452,87.102932 36.163837,87.1634 35.242949,85.910292 34.397592,84.757597 34.896289,83.98945 34.607943,83.10286 Z"
           style="fill:#c0c0c0;stroke-width:0.16017;" />
      </g>
      <g
         transform="matrix(1.385076,0,0,1.385076,-167.43444,-91.100659)"
         class="o"
         id="g94">
        <g
           class="d"
           id="g90">
          <path
             id="use86"
             d="m 143.625,137.035 c 0.227,-0.428 0.634,-1.165 1.267,-1.437 0.598,-0.257 1.418,-0.059 1.757,-0.17 1.072,-0.349 0.834,-1.733 2.469,-1.701 l 0.248,1.606 c -0.241,-0.265 -0.615,-0.485 -1.095,-0.259 -0.474,0.223 -0.928,0.914 -1.193,0.999 -0.606,0.194 -1.168,-0.303 -2.093,-0.007 -0.85,0.272 -0.889,0.626 -1.36,0.968 z" />
          <path
             id="use88"
             d="m 149.29,134.846 c 0.263,-0.461 0.723,-0.613 0.983,-0.504 0.088,0.13 0.155,0.298 0.421,0.195 0.294,-0.095 0.184,-0.93 -0.514,-0.862 -0.391,0.061 -0.446,0.329 -0.669,0.414 -0.223,0.085 -0.247,-0.097 -0.364,-0.168 z"
             style="opacity:0.996;" />
        </g>
        <path
           id="use92"
           d="m 143.625,137.035 c 0.227,-0.428 0.634,-1.165 1.267,-1.437 0.598,-0.257 1.418,-0.059 1.757,-0.17 1.072,-0.349 0.834,-1.733 2.469,-1.701 l 0.248,1.606 c -0.124,-0.803 -0.782,-0.913 -1.262,-0.688 -0.474,0.223 -0.92,0.975 -1.184,1.06 -0.606,0.194 -1.018,-0.152 -1.943,0.143 -0.85,0.272 -0.88,0.843 -1.351,1.185 z"
           style="fill:#c0c0c0;" />
      </g>
      <g
         transform="matrix(-0.865253,0,0,0.865253,77.50677,12.663009)"
         id="g104">
        <g
           class="d"
           id="g100">
          <path
             id="use96"
             d="m 39.888,91.269 -1.056,1.064 c 0.218,0.018 0.421,-0.195 0.63,0.125 0.209,0.32 0.028,0.719 0.477,1.166 a 0.92,0.92 0 0 0 1.433,-0.159 0.471,0.471 0 0 0 -0.077,-0.691 0.471,0.471 0 0 0 -0.627,0.066 c -0.433,-0.117 -0.872,-0.739 -0.78,-1.571 z"
             style="opacity:0.996;stroke-width:0.16;" />
          <path
             id="use98"
             d="m 34.60853,83.099327 c -0.108795,0.768314 -0.275256,2.106493 0.288912,3.054892 0.532936,0.896012 1.781903,1.411436 2.116678,1.874423 1.060533,1.461475 -0.550841,3.0308 1.597923,4.528614 l 1.833336,-1.847579 c -0.561774,0.116497 -1.253525,0.04947 -1.662741,-0.69528 -0.404266,-0.735214 -0.342016,-2.058035 -0.60538,-2.417663 -0.602614,-0.821908 -1.798758,-0.706992 -2.718706,-1.961395 -0.845356,-1.152695 -0.562618,-1.648126 -0.850963,-2.534716 z"
             style="stroke-width:0.16017;" />
        </g>
        <path
           id="use102"
           d="m 34.60853,83.099327 c -0.108795,0.768314 -0.275256,2.106493 0.288912,3.054892 0.532936,0.896012 1.781903,1.411436 2.116678,1.874423 1.060533,1.461475 -0.550841,3.0308 1.597923,4.528614 l 1.833336,-1.847579 c -0.916668,0.923789 -1.872866,0.44685 -2.283025,-0.296604 -0.404266,-0.735214 -0.27422,-2.129546 -0.536288,-2.488234 C 37.023452,87.102932 36.163837,87.1634 35.242949,85.910292 34.397592,84.757597 34.896289,83.98945 34.607943,83.10286 Z"
           style="fill:#c0c0c0;stroke-width:0.16017;" />
      </g>
      <g
         transform="matrix(-1.385076,0,0,1.385076,250.54251,-91.100659)"
         class="o"
         id="g114">
        <g
           class="d"
           id="g110">
          <path
             id="use106"
             d="m 143.625,137.035 c 0.227,-0.428 0.634,-1.165 1.267,-1.437 0.598,-0.257 1.418,-0.059 1.757,-0.17 1.072,-0.349 0.834,-1.733 2.469,-1.701 l 0.248,1.606 c -0.241,-0.265 -0.615,-0.485 -1.095,-0.259 -0.474,0.223 -0.928,0.914 -1.193,0.999 -0.606,0.194 -1.168,-0.303 -2.093,-0.007 -0.85,0.272 -0.889,0.626 -1.36,0.968 z" />
          <path
             id="use108"
             d="m 149.29,134.846 c 0.263,-0.461 0.723,-0.613 0.983,-0.504 0.088,0.13 0.155,0.298 0.421,0.195 0.294,-0.095 0.184,-0.93 -0.514,-0.862 -0.391,0.061 -0.446,0.329 -0.669,0.414 -0.223,0.085 -0.247,-0.097 -0.364,-0.168 z"
             style="opacity:0.996;" />
        </g>
        <path
           id="use112"
           d="m 143.625,137.035 c 0.227,-0.428 0.634,-1.165 1.267,-1.437 0.598,-0.257 1.418,-0.059 1.757,-0.17 1.072,-0.349 0.834,-1.733 2.469,-1.701 l 0.248,1.606 c -0.124,-0.803 -0.782,-0.913 -1.262,-0.688 -0.474,0.223 -0.92,0.975 -1.184,1.06 -0.606,0.194 -1.018,-0.152 -1.943,0.143 -0.85,0.272 -0.88,0.843 -1.351,1.185 z"
           style="fill:#c0c0c0;" />
      </g>
    </g>
  </g>
  <g
     id="g1658">
    <path
       d="m 46.421,31.792 h 0.657 v 25.013 h -0.657 z"
       class="d h k"
       id="path118" />
    <g
       class="j v"
       id="g128"
       transform="translate(3.059,-74.058)">
      <path
         id="ellipse120"
         transform="scale(-1,1)"
         style="opacity:0.994;stroke-width:0.197;"
         d="m -44.255002,104.069 a 0.39500001,0.41299999 0 0 1 -0.395,0.413 0.39500001,0.41299999 0 0 1 -0.395,-0.413 0.39500001,0.41299999 0 0 1 0.395,-0.413 0.39500001,0.41299999 0 0 1 0.395,0.413 z"
         class="i w" />
      <path
         id="use122"
         d="m 44.080362,102.90459 c -0.16612,0 -0.636503,0.1737 -0.43541,0.63996 l -0.274536,-0.0677 c 0.382952,0.65276 0.664482,1.48471 0.52634,2.49951 -0.368962,0.35837 -0.08568,0.66007 0.181858,0.68018 0.267541,-0.0201 0.552568,-0.32363 0.183606,-0.68018 -0.138142,-1.01663 0.14164,-1.84858 0.526339,-2.49951 l -0.274535,0.0677 c 0.202841,-0.46809 -0.26929,-0.63996 -0.43541,-0.63996 z"
         style="stroke-width:0.196691;" />
      <path
         id="ellipse124"
         style="opacity:0.994;stroke-width:0.197;"
         d="m 38.800998,104.069 a 0.39500001,0.41299999 0 0 1 -0.395,0.413 0.39500001,0.41299999 0 0 1 -0.395,-0.413 0.39500001,0.41299999 0 0 1 0.395,-0.413 0.39500001,0.41299999 0 0 1 0.395,0.413 z"
         class="i w" />
      <path
         id="use126"
         d="m 38.975748,102.90459 c 0.16612,0 0.636503,0.1737 0.43541,0.63996 l 0.274536,-0.0677 c -0.382952,0.65276 -0.664482,1.48471 -0.52634,2.49951 0.368962,0.35837 0.08568,0.66007 -0.181858,0.68018 -0.267541,-0.0201 -0.552568,-0.32363 -0.183606,-0.68018 0.138142,-1.01663 -0.14164,-1.84858 -0.526339,-2.49951 l 0.274535,0.0677 c -0.202841,-0.46809 0.26929,-0.63996 0.43541,-0.63996 z"
         style="stroke-width:0.196691;" />
    </g>
    <g
       stroke-width="0.168"
       id="g138"
       transform="translate(3.059,-74.058)">
      <path
         d="m 41.489,147.535 -13.184,0.154 c -1.298,0 -1.223,-1.97 0.292,-2.135 1.678,-0.183 3.91,-0.72 4.933,-3.626 0.502,-1.425 1.863,-2.895 5.188,-2.895 h 2.771 z"
         fill="#f2f2f2"
         class="j"
         id="path130" />
      <g
         class="k"
         id="g136">
        <path
           d="m 41.489,147.535 13.184,0.154 c 1.298,0 1.223,-1.97 -0.292,-2.135 -1.678,-0.183 -3.91,-0.72 -4.933,-3.626 -0.502,-1.425 -1.863,-2.895 -5.188,-2.895 h -2.771 z"
           class="d"
           id="path132" />
        <path
           d="m 39.538,139.032 h 3.903 v 8.532 h -3.903 z"
           fill="#e5e5e5"
           class="n"
           id="path134" />
      </g>
    </g>
    <path
       id="rect140"
       style="opacity:0.994;fill:#ffffff;stroke:#dddddd;stroke-width:0.179;"
       d="m 40.686998,61.604004 h 7.725001 c 0.382814,0 0.691,0.308186 0.691,0.691 v 0.002 c 0,0.382814 -0.308186,0.691 -0.691,0.691 h -7.725001 c -0.382814,0 -0.691,-0.308186 -0.691,-0.691 v -0.002 c 0,-0.382814 0.308186,-0.691 0.691,-0.691 z"
       class="d h i k" />
    <path
       d="m 38.611,62.99 c 0.318,0.733 0.416,1.54 1.621,1.989 h 1.546 2.77 2.77 0.002 1.546 c 1.205,-0.45 1.303,-1.256 1.621,-1.989 z m 3.013,1.88 z m 5.847,0 z"
       fill="url(#I)"
       id="path142"
       style="fill:url(#I);" />
    <g
       class="d h j"
       id="g148"
       transform="translate(3.059,-74.058)">
      <path
         d="m 44.259,139.037 h 1.548 c 1.205,-0.45 1.303,-1.254 1.621,-1.989 -0.759,0.474 -0.969,0.355 -1.542,0.351 -0.243,0.018 -0.664,0.08 -0.817,0.421 -0.079,0.177 -0.416,1.024 -0.81,1.218 z"
         id="path144" />
      <path
         d="m 44.259,139.037 h -2.77 v -0.995 c 0,-0.261 0.213,-0.609 0.533,-0.666 0.582,-0.104 1.18,-0.172 1.327,-0.457 0.435,0.51 1.04,0.516 1.334,0.545 0.271,0.026 0.435,0.075 0.385,0.355 -0.072,0.408 -0.448,1.015 -0.81,1.218 z"
         id="path146" />
    </g>
    <path
       d="M 41.778,64.979 H 40.23 c -1.205,-0.45 -1.303,-1.254 -1.621,-1.989 0.759,0.474 0.969,0.355 1.542,0.351 0.243,0.018 0.664,0.08 0.817,0.421 0.079,0.177 0.416,1.024 0.81,1.218 z"
       class="h j v"
       id="path150" />
    <g
       class="AA h"
       id="g156"
       transform="translate(3.059,-74.058)">
      <path
         d="m 38.719,139.037 h 2.77 v -0.995 c 0,-0.261 -0.213,-0.609 -0.533,-0.666 -0.582,-0.104 -1.18,-0.172 -1.327,-0.457 -0.435,0.51 -1.04,0.516 -1.334,0.545 -0.271,0.026 -0.435,0.075 -0.385,0.355 0.072,0.408 0.448,1.015 0.81,1.218 z"
         class="j"
         id="path152" />
      <path
         d="m 38.327,130.864 h 3.162 v 4.798 h -3.162 z"
         class="i k"
         id="path154" />
    </g>
    <path
       d="m 44.548,56.806 h 3.162 v 4.798 h -3.162 z"
       class="d h i k"
       id="path158" />
    <g
       class="AA h k"
       id="g166"
       transform="translate(3.059,-74.058)">
      <path
         d="M 41.505,105.847 H 40.29 v 25.013 h 1.215 z"
         class="i"
         id="path160" />
      <path
         d="m 40.291,105.847 h -0.657 v 25.013 h 0.657 z"
         class="i"
         id="path162" />
      <path
         d="m 39.634,105.847 h -0.657 v 25.013 h 0.657 z"
         class="i"
         id="path164" />
    </g>
    <g
       class="d h k"
       id="g172"
       transform="translate(3.059,-74.058)">
      <path
         d="m 41.489,105.85 h 1.215 v 25.013 h -1.215 z"
         class="i"
         id="path168" />
      <path
         d="m 42.704,105.85 h 0.657 v 25.013 h -0.657 z"
         class="i"
         id="path170" />
    </g>
    <g
       class="AA h k"
       id="g180"
       transform="translate(3.059,-74.058)">
      <path
         d="m 41.506,105.81 h -1.224 v -2.496 h 1.224 z"
         class="i"
         id="path174" />
      <path
         d="m 40.282,105.81 h -0.663 v -2.496 h 0.663 z"
         class="i"
         id="path176" />
      <path
         d="m 39.62,105.81 h -0.663 v -2.496 h 0.663 z"
         class="i"
         id="path178" />
    </g>
    <g
       class="d h k"
       id="g188"
       transform="translate(3.059,-74.058)">
      <path
         d="m 41.489,105.81 h 1.224 v -2.496 h -1.224 z"
         class="i"
         id="path182" />
      <path
         d="m 42.713,105.81 h 0.663 v -2.496 h -0.663 z"
         class="i"
         id="path184" />
      <path
         d="m 43.376,105.81 h 0.663 v -2.496 h -0.663 z"
         class="i"
         id="path186" />
    </g>
    <g
       class="j v w"
       id="g194"
       transform="translate(3.059,-74.058)">
      <path
         id="ellipse190"
         style="opacity:0.994;"
         d="m 41.313999,104.069 a 0.39500001,0.41299999 0 0 1 -0.395,0.413 0.39500001,0.41299999 0 0 1 -0.395,-0.413 0.39500001,0.41299999 0 0 1 0.395,-0.413 0.39500001,0.41299999 0 0 1 0.395,0.413 z"
         class="i" />
      <path
         id="ellipse192"
         transform="scale(-1,1)"
         style="opacity:0.994;"
         d="m -41.666001,104.069 a 0.39500001,0.41299999 0 0 1 -0.395,0.413 0.39500001,0.41299999 0 0 1 -0.395,-0.413 0.39500001,0.41299999 0 0 1 0.395,-0.413 0.39500001,0.41299999 0 0 1 0.395,0.413 z"
         class="i" />
    </g>
    <path
       d="m 43.567,23.106 c -0.324,0.51 -0.554,1.063 -0.368,1.805 -0.471,0.051 -0.784,-0.161 -1.121,-0.333 0.129,0.765 0.179,1.227 0.403,1.963 l -0.753,0.088 c 0.471,1.642 1.463,2.434 2.822,2.628 1.358,-0.194 2.35,-0.986 2.821,-2.628 l -0.753,-0.088 c 0.224,-0.736 0.274,-1.198 0.403,-1.963 -0.337,0.172 -0.65,0.384 -1.121,0.333 0.185,-0.742 -0.044,-1.294 -0.368,-1.805 -0.119,0.358 -1.177,0.537 -0.981,1.226 -0.139,-0.693 -0.794,-0.91 -0.981,-1.226 z"
       fill="url(#J)"
       class="j m"
       id="path196"
       style="fill:url(#J);" />
    <path
       d="m 44.548,28.847 c -0.168,0 -0.637,0.174 -0.435,0.64 l -0.275,-0.068 c 0.383,0.653 0.664,1.485 0.526,2.5 -0.369,0.358 -0.086,0.66 0.182,0.68 0.268,-0.02 0.553,-0.324 0.184,-0.68 -0.138,-1.017 0.142,-1.849 0.526,-2.5 l -0.275,0.068 c 0.203,-0.468 -0.269,-0.64 -0.435,-0.64 z"
       class="j v w"
       id="path198" />
  </g>
  <g
     id="g1601">
    <g
       class="f"
       id="g204"
       transform="translate(3.059,-74.058)">
      <path
         d="m 7.105,89.069 v 54.102 c -0.202,1.928 0.696,3.703 2.173,5.397"
         fill="none"
         class="AC"
         id="path200" />
      <path
         id="use202"
         d="m 3.958,141.341 c 0.648,-0.075 1.664,-0.193 2.057,0.297 -0.337,-0.861 0.3,-2.181 0.743,-2.181 1.052,0.793 1.099,1.586 1.115,2.379 0.739,-0.185 1.172,-0.065 1.735,-0.074 -0.443,0.503 -0.442,1.252 -1.413,1.462 0.869,0.359 0.737,1.319 1.016,2.032 0.01,0.435 -1.967,-0.069 -2.354,-0.892 -0.605,0.783 -2.194,1.307 -2.305,1.041 0.097,-0.769 0.066,-1.589 0.793,-2.106 -0.944,-0.171 -1.062,-1.168 -1.388,-1.958 z"
         style="fill:#fecc00;stroke-width:0.265;" />
    </g>
    <path
       id="use206"
       d="m 7.946,67.977 c 0.418,0.296 1.051,0.822 1.648,0.88 -0.639,0.425 -0.91,1.155 -1.363,1.735 0.546,-0.524 1.318,-0.854 1.636,-1.574 0.308,0.631 0.99,0.951 1.487,1.425 -0.437,-0.521 -0.62,-1.169 -1.313,-1.561 0.773,-0.012 1.492,-0.494 2.057,-0.743 -0.586,0.144 -1.488,0.042 -2.106,0.446 0.275,-0.809 -0.14,-1.553 -0.223,-2.33 C 9.739,67.02 9.561,67.878 9.658,68.547 9.387,68.279 8.435,67.984 7.874,67.878 Z"
       style="fill:#ff0000;" />
    <path
       id="use208"
       d="m 7.017,56.068 c 0.648,-0.075 1.664,-0.193 2.057,0.297 -0.337,-0.861 0.3,-2.181 0.743,-2.181 1.052,0.793 1.099,1.586 1.115,2.379 0.739,-0.185 1.172,-0.065 1.735,-0.074 -0.443,0.503 -0.442,1.252 -1.413,1.462 0.869,0.359 0.737,1.319 1.016,2.032 0.01,0.435 -1.967,-0.069 -2.354,-0.892 C 9.311,59.874 7.722,60.398 7.611,60.132 7.708,59.363 7.677,58.543 8.404,58.026 7.46,57.855 7.342,56.858 7.016,56.068 Z"
       style="fill:#fecc00;stroke:#b99500;stroke-width:0.265;" />
    <path
       id="use210"
       d="m 7.946,56.762 c 0.418,0.296 1.051,0.822 1.648,0.88 -0.639,0.425 -0.91,1.155 -1.363,1.735 0.546,-0.524 1.318,-0.854 1.636,-1.574 0.308,0.631 0.99,0.951 1.487,1.425 -0.437,-0.521 -0.62,-1.169 -1.313,-1.561 0.773,-0.012 1.492,-0.494 2.057,-0.743 -0.586,0.144 -1.488,0.042 -2.106,0.446 0.275,-0.809 -0.14,-1.553 -0.223,-2.33 -0.03,0.765 -0.208,1.623 -0.111,2.292 C 9.387,57.064 8.435,56.769 7.874,56.663 Z"
       style="fill:#ff0000;" />
    <path
       id="use212"
       d="m 7.017,43.241 c 0.648,-0.075 1.664,-0.193 2.057,0.297 -0.337,-0.861 0.3,-2.181 0.743,-2.181 1.052,0.793 1.099,1.586 1.115,2.379 0.739,-0.185 1.172,-0.065 1.735,-0.074 -0.443,0.503 -0.442,1.252 -1.413,1.462 0.869,0.359 0.737,1.319 1.016,2.032 0.01,0.435 -1.967,-0.069 -2.354,-0.892 C 9.311,47.047 7.722,47.571 7.611,47.305 7.708,46.536 7.677,45.716 8.404,45.199 7.46,45.028 7.342,44.031 7.016,43.241 Z"
       style="fill:#fecc00;stroke:#b99500;stroke-width:0.265;" />
    <path
       id="use214"
       d="m 7.946,43.935 c 0.418,0.296 1.051,0.822 1.648,0.88 -0.639,0.425 -0.91,1.155 -1.363,1.735 0.546,-0.524 1.318,-0.854 1.636,-1.574 0.308,0.631 0.99,0.951 1.487,1.425 -0.437,-0.521 -0.62,-1.169 -1.313,-1.561 0.773,-0.012 1.492,-0.494 2.057,-0.743 -0.586,0.144 -1.488,0.042 -2.106,0.446 0.275,-0.809 -0.14,-1.553 -0.223,-2.33 -0.03,0.765 -0.208,1.623 -0.111,2.292 C 9.387,44.237 8.435,43.942 7.874,43.836 Z"
       style="fill:#ff0000;" />
    <path
       id="use216"
       d="m 7.017,30.974002 c 0.648,-0.075 1.664,-0.193 2.057,0.297 -0.337,-0.861 0.3,-2.181 0.743,-2.181 1.052,0.793 1.099,1.586 1.115,2.379 0.739,-0.185 1.172,-0.065 1.735,-0.074 -0.443,0.503 -0.442,1.252 -1.413,1.462 0.869,0.359 0.737,1.319 1.016,2.032 0.01,0.435 -1.967,-0.069 -2.354,-0.892 -0.605,0.783 -2.194,1.307 -2.305,1.041 0.097,-0.769 0.066,-1.589 0.793,-2.106 -0.944,-0.171 -1.062,-1.168 -1.388,-1.958 z"
       style="fill:#fecc00;stroke:#b99500;stroke-width:0.265;" />
    <path
       id="use218"
       d="m 7.946,31.668002 c 0.418,0.296 1.051,0.822 1.648,0.88 -0.639,0.425 -0.91,1.155 -1.363,1.735 0.546,-0.524 1.318,-0.854 1.636,-1.574 0.308,0.631 0.99,0.951 1.487,1.425 -0.437,-0.521 -0.62,-1.169 -1.313,-1.561 0.773,-0.012 1.492,-0.494 2.057,-0.743 -0.586,0.144 -1.488,0.042 -2.106,0.446 0.275,-0.809 -0.14,-1.553 -0.223,-2.33 -0.03,0.765 -0.208,1.623 -0.111,2.292 -0.271,-0.268 -1.223,-0.563 -1.784,-0.669 z"
       style="fill:#ff0000;" />
    <path
       id="use220"
       d="m 7.017,18.137 c 0.648,-0.075 1.664,-0.193 2.057,0.297 -0.337,-0.861 0.3,-2.181 0.743,-2.181 1.052,0.793 1.099,1.586 1.115,2.379 0.739,-0.185 1.172,-0.065 1.735,-0.074 -0.443,0.503 -0.442,1.252 -1.413,1.462 0.869,0.359 0.737,1.319 1.016,2.032 C 12.28,22.487 10.303,21.983 9.916,21.16 9.311,21.943 7.722,22.467 7.611,22.201 7.708,21.432 7.677,20.612 8.404,20.095 7.46,19.924 7.342,18.927 7.016,18.137 Z"
       style="fill:#fecc00;stroke:#b99500;stroke-width:0.265;" />
    <path
       id="use222"
       d="m 7.946,18.831 c 0.418,0.296 1.051,0.822 1.648,0.88 -0.639,0.425 -0.91,1.155 -1.363,1.735 0.546,-0.524 1.318,-0.854 1.636,-1.574 0.308,0.631 0.99,0.951 1.487,1.425 -0.437,-0.521 -0.62,-1.169 -1.313,-1.561 0.773,-0.012 1.492,-0.494 2.057,-0.743 -0.586,0.144 -1.488,0.042 -2.106,0.446 0.275,-0.809 -0.14,-1.553 -0.223,-2.33 -0.03,0.765 -0.208,1.623 -0.111,2.292 C 9.387,19.133 8.435,18.838 7.874,18.732 Z"
       style="fill:#ff0000;" />
    <g
       class="m"
       id="g228"
       transform="translate(3.059,-74.058)">
      <path
         id="use224"
         d="m 5.556,137.017 c -0.245,-0.292 -0.563,-1.276 0.235,-1.623 0.378,-1.387 2.066,-0.835 2.094,-0.087 1.137,0.249 0.805,1.593 0.533,2.181 l -1.623,0.483 z"
         style="fill:#e9e9e9;stroke:#c5c5c5;" />
      <path
         id="use226"
         d="m 5.296,136.819 c -0.092,1.786 0.845,1.983 1.821,2.119 1.931,-0.259 1.248,-1.372 1.648,-2.131 -0.395,0.104 -0.812,-0.013 -1.177,0.384 -0.08,-0.299 -0.389,-0.46 -0.62,-0.669 -0.214,0.223 -0.552,0.359 -0.558,0.731 -0.397,-0.319 -0.749,-0.327 -1.115,-0.434 z"
         style="opacity:0.997;fill:#23682b;stroke:#1f4b1f;" />
    </g>
    <path
       id="use230"
       d="M 9.875,61.087 C 9.452,61.033 9.481,61.67 9.093,61.69 8.69,61.785 8.714,62.321 9.019,62.514 c 0.397,0.245 0.628,-0.344 1.019,-0.317 0.384,-0.019 0.694,0.504 1.091,0.205 0.412,-0.342 -0.172,-0.664 -0.502,-0.678 -0.361,-0.087 -0.314,-0.705 -0.751,-0.637 z"
       style="fill:#ffffff;" />
    <g
       class="m"
       id="g236"
       transform="translate(3.059,-74.058)">
      <path
         id="use232"
         d="m 5.556,124.923 c -0.245,-0.292 -0.563,-1.276 0.235,-1.623 0.378,-1.387 2.066,-0.835 2.094,-0.087 1.137,0.249 0.805,1.593 0.533,2.181 l -1.623,0.483 z"
         style="fill:#e9e9e9;stroke:#c5c5c5;" />
      <path
         id="use234"
         d="m 5.296,124.725 c -0.092,1.786 0.845,1.983 1.821,2.119 1.931,-0.259 1.248,-1.372 1.648,-2.131 -0.395,0.104 -0.812,-0.013 -1.177,0.384 -0.08,-0.299 -0.389,-0.46 -0.62,-0.669 -0.214,0.223 -0.552,0.359 -0.558,0.731 -0.397,-0.319 -0.749,-0.327 -1.115,-0.434 z"
         style="opacity:0.997;fill:#23682b;stroke:#1f4b1f;" />
    </g>
    <path
       id="use238"
       d="M 9.875,48.993 C 9.452,48.939 9.481,49.576 9.093,49.596 8.69,49.691 8.714,50.227 9.019,50.42 c 0.397,0.245 0.628,-0.344 1.019,-0.317 0.384,-0.019 0.694,0.504 1.091,0.205 0.412,-0.342 -0.172,-0.664 -0.502,-0.678 -0.361,-0.087 -0.314,-0.705 -0.751,-0.637 z"
       style="fill:#ffffff;" />
    <g
       class="m"
       id="g244"
       transform="translate(3.059,-74.058)">
      <path
         id="use240"
         d="m 5.556,111.838 c -0.245,-0.292 -0.563,-1.276 0.235,-1.623 0.378,-1.387 2.066,-0.835 2.094,-0.087 1.137,0.249 0.805,1.593 0.533,2.181 l -1.623,0.483 z"
         style="fill:#e9e9e9;stroke:#c5c5c5;" />
      <path
         id="use242"
         d="m 5.296,111.64 c -0.092,1.786 0.845,1.983 1.821,2.119 1.931,-0.259 1.248,-1.372 1.648,-2.131 -0.395,0.104 -0.812,-0.013 -1.177,0.384 -0.08,-0.299 -0.389,-0.46 -0.62,-0.669 -0.214,0.223 -0.552,0.359 -0.558,0.731 -0.397,-0.319 -0.749,-0.327 -1.115,-0.434 z"
         style="opacity:0.997;fill:#23682b;stroke:#1f4b1f;" />
    </g>
    <path
       id="use246"
       d="m 9.875,35.907999 c -0.423,-0.054 -0.394,0.583 -0.782,0.603 -0.403,0.095 -0.379,0.631 -0.074,0.824 0.397,0.245 0.628,-0.344 1.019,-0.317 0.384,-0.019 0.694,0.504 1.091,0.205 0.412,-0.342 -0.172,-0.664 -0.502,-0.678 -0.361,-0.087 -0.314,-0.705 -0.751,-0.637 z"
       style="fill:#ffffff;" />
    <g
       class="m"
       id="g252"
       transform="translate(3.059,-74.058)">
      <path
         id="use248"
         d="M 5.556,99.447 C 5.311,99.155 4.993,98.171 5.791,97.824 6.169,96.437 7.857,96.989 7.885,97.737 9.022,97.986 8.69,99.33 8.418,99.918 l -1.623,0.483 z"
         style="fill:#e9e9e9;stroke:#c5c5c5;" />
      <path
         id="use250"
         d="m 5.296,99.249 c -0.092,1.786 0.845,1.983 1.821,2.119 1.931,-0.259 1.248,-1.372 1.648,-2.131 C 8.37,99.341 7.953,99.224 7.588,99.621 7.508,99.322 7.199,99.161 6.968,98.952 6.754,99.175 6.416,99.311 6.41,99.683 6.013,99.364 5.661,99.356 5.295,99.249 Z"
         style="opacity:0.997;fill:#23682b;stroke:#1f4b1f;" />
    </g>
    <path
       id="use254"
       d="M 9.875,23.517 C 9.452,23.463 9.481,24.1 9.093,24.12 8.69,24.215 8.714,24.751 9.019,24.944 c 0.397,0.245 0.628,-0.344 1.019,-0.317 0.384,-0.019 0.694,0.504 1.091,0.205 0.412,-0.342 -0.172,-0.664 -0.502,-0.678 -0.361,-0.087 -0.314,-0.705 -0.751,-0.637 z"
       style="fill:#ffffff;" />
    <g
       class="m"
       id="g260"
       transform="translate(3.059,-74.058)">
      <path
         id="use256"
         d="m 5.556,87.601999 c -0.245,-0.292 -0.563,-1.276 0.235,-1.623 0.378,-1.387 2.066,-0.835 2.094,-0.087 1.137,0.249 0.805,1.593 0.533,2.181 l -1.623,0.483 z"
         style="fill:#e9e9e9;stroke:#c5c5c5;" />
      <path
         id="use258"
         d="m 5.296,87.403999 c -0.092,1.786 0.845,1.983 1.821,2.119 1.931,-0.259 1.248,-1.372 1.648,-2.131 -0.395,0.104 -0.812,-0.013 -1.177,0.384 -0.08,-0.299 -0.389,-0.46 -0.62,-0.669 -0.214,0.223 -0.552,0.359 -0.558,0.731 -0.397,-0.319 -0.749,-0.327 -1.115,-0.434 z"
         style="opacity:0.997;fill:#23682b;stroke:#1f4b1f;" />
    </g>
    <path
       id="use262"
       d="m 9.875,11.671999 c -0.423,-0.054 -0.394,0.583 -0.782,0.603 -0.403,0.095 -0.379,0.631 -0.074,0.824 0.397,0.245 0.628,-0.344 1.019,-0.317 0.384,-0.019 0.694,0.504 1.091,0.205 0.412,-0.342 -0.172,-0.664 -0.502,-0.678 -0.361,-0.087 -0.314,-0.705 -0.751,-0.637 z"
       style="fill:#ffffff;" />
  </g>
  <g
     id="g1567">
    <g
       class="f"
       id="g272"
       transform="translate(3.059,-74.058)">
      <g
         fill="none"
         class="AC"
         id="g268">
        <path
           d="m 72.849,149.495 c 1.809,-2.833 4.784,-4.501 4.56,-9.368"
           id="path264" />
        <path
           d="m 75.426,140.573 c 0.384,0.982 0.281,2.002 1.437,2.924"
           id="path266" />
      </g>
      <path
         id="use270"
         d="m 74.658,135.43 c 1.603,1.395 1.614,4.13 0.982,5.656 -1.548,-1.5 -1.767,-4.029 -0.982,-5.656 z"
         style="fill:#fecc00;stroke-width:0.507;" />
    </g>
    <path
       id="use274"
       d="m 77.962,63.12 c 0.501,0.66 0.458,1.32 0.263,1.98 -0.298,-0.526 -0.475,-1.129 -0.263,-1.98 z"
       style="fill:#ff0000;" />
    <g
       transform="matrix(0.944337,0.319129,-0.29822,1.010547,184.05042,-55.71255)"
       id="g280">
      <path
         id="use276"
         d="m -66.177999,135.43 c 1.603,1.395 1.614,4.13 0.982,5.656 -1.548,-1.5 -1.767,-4.029 -0.982,-5.656 z"
         style="fill:#fecc00;stroke:#b99500;stroke-width:0.507;" />
      <path
         id="use278"
         d="m -65.932999,137.178 c 0.501,0.66 0.458,1.32 0.263,1.98 -0.298,-0.526 -0.475,-1.129 -0.263,-1.98 z"
         style="fill:#ff0000;" />
    </g>
    <g
       transform="matrix(0.977497,0.19523,-0.165992,1.040474,166.61299,-73.176383)"
       id="g286">
      <path
         id="use282"
         d="m -66.177999,135.43 c 1.603,1.395 1.614,4.13 0.982,5.656 -1.548,-1.5 -1.767,-4.029 -0.982,-5.656 z"
         style="fill:#fecc00;stroke:#b99500;stroke-width:0.507;" />
      <path
         id="use284"
         d="m -65.932999,137.178 c 0.501,0.66 0.458,1.32 0.263,1.98 -0.298,-0.526 -0.475,-1.129 -0.263,-1.98 z"
         style="fill:#ff0000;" />
    </g>
    <g
       transform="matrix(0.993423,0.082008,-0.045751,1.052638,149.56077,-86.57308)"
       id="g292">
      <path
         id="use288"
         d="m -66.177999,135.43 c 1.603,1.395 1.614,4.13 0.982,5.656 -1.548,-1.5 -1.767,-4.029 -0.982,-5.656 z"
         style="fill:#fecc00;stroke:#b99500;stroke-width:0.507;" />
      <path
         id="use290"
         d="m -65.932999,137.178 c 0.501,0.66 0.458,1.32 0.263,1.98 -0.298,-0.526 -0.475,-1.129 -0.263,-1.98 z"
         style="fill:#ff0000;" />
    </g>
    <g
       transform="matrix(0.939692,0.332556,-0.312593,1.006194,185.69655,-64.527546)"
       id="g298">
      <path
         id="use294"
         d="m -66.177999,135.43 c 1.603,1.395 1.614,4.13 0.982,5.656 -1.548,-1.5 -1.767,-4.029 -0.982,-5.656 z"
         style="fill:#fecc00;stroke:#b99500;stroke-width:0.507;" />
      <path
         id="use296"
         d="m -65.932999,137.178 c 0.501,0.66 0.458,1.32 0.263,1.98 -0.298,-0.526 -0.475,-1.129 -0.263,-1.98 z"
         style="fill:#ff0000;" />
    </g>
    <g
       transform="matrix(0.962247,0.338635,-0.191258,1.106264,169.24416,-83.520391)"
       id="g304">
      <path
         id="use300"
         d="m -66.177999,135.43 c 1.603,1.395 1.614,4.13 0.982,5.656 -1.548,-1.5 -1.767,-4.029 -0.982,-5.656 z"
         style="fill:#fecc00;stroke:#b99500;stroke-width:0.507;" />
      <path
         id="use302"
         d="m -65.932999,137.178 c 0.501,0.66 0.458,1.32 0.263,1.98 -0.298,-0.526 -0.475,-1.129 -0.263,-1.98 z"
         style="fill:#ff0000;" />
    </g>
    <g
       transform="matrix(0.962247,0.338635,-0.191258,1.106264,170.82127,-88.847545)"
       id="g310">
      <path
         id="use306"
         d="m -66.177999,135.43 c 1.603,1.395 1.614,4.13 0.982,5.656 -1.548,-1.5 -1.767,-4.029 -0.982,-5.656 z"
         style="fill:#fecc00;stroke:#b99500;stroke-width:0.507;" />
      <path
         id="use308"
         d="m -65.932999,137.178 c 0.501,0.66 0.458,1.32 0.263,1.98 -0.298,-0.526 -0.475,-1.129 -0.263,-1.98 z"
         style="fill:#ff0000;" />
    </g>
    <g
       transform="matrix(0.962247,0.338635,-0.191258,1.106264,167.35161,-87.165286)"
       id="g316">
      <path
         id="use312"
         d="m -66.177999,135.43 c 1.603,1.395 1.614,4.13 0.982,5.656 -1.548,-1.5 -1.767,-4.029 -0.982,-5.656 z"
         style="fill:#fecc00;stroke:#b99500;stroke-width:0.507;" />
      <path
         id="use314"
         d="m -65.932999,137.178 c 0.501,0.66 0.458,1.32 0.263,1.98 -0.298,-0.526 -0.475,-1.129 -0.263,-1.98 z"
         style="fill:#ff0000;" />
    </g>
    <g
       transform="matrix(0.982464,0.274515,-0.117973,1.116459,159.98285,-99.06118)"
       id="g322">
      <path
         id="use318"
         d="m -66.177999,135.43 c 1.603,1.395 1.614,4.13 0.982,5.656 -1.548,-1.5 -1.767,-4.029 -0.982,-5.656 z"
         style="fill:#fecc00;stroke:#b99500;stroke-width:0.507;" />
      <path
         id="use320"
         d="m -65.932999,137.178 c 0.501,0.66 0.458,1.32 0.263,1.98 -0.298,-0.526 -0.475,-1.129 -0.263,-1.98 z"
         style="fill:#ff0000;" />
    </g>
    <g
       transform="matrix(0.982464,0.274515,-0.117973,1.116459,158.68611,-105.36965)"
       id="g328">
      <path
         id="use324"
         d="m -66.177999,135.43 c 1.603,1.395 1.614,4.13 0.982,5.656 -1.548,-1.5 -1.767,-4.029 -0.982,-5.656 z"
         style="fill:#fecc00;stroke:#b99500;stroke-width:0.507;" />
      <path
         id="use326"
         d="m -65.932999,137.178 c 0.501,0.66 0.458,1.32 0.263,1.98 -0.298,-0.526 -0.475,-1.129 -0.263,-1.98 z"
         style="fill:#ff0000;" />
    </g>
    <g
       transform="matrix(0.963279,0.335689,-0.187872,1.106844,170.14038,-99.985398)"
       id="g334">
      <path
         id="use330"
         d="m -66.177999,135.43 c 1.603,1.395 1.614,4.13 0.982,5.656 -1.548,-1.5 -1.767,-4.029 -0.982,-5.656 z"
         style="fill:#fecc00;stroke:#b99500;stroke-width:0.507;" />
      <path
         id="use332"
         d="m -65.932999,137.178 c 0.501,0.66 0.458,1.32 0.263,1.98 -0.298,-0.526 -0.475,-1.129 -0.263,-1.98 z"
         style="fill:#ff0000;" />
    </g>
    <g
       transform="matrix(0.902875,0.085141,0.083774,1.125251,125.89056,-126.63198)"
       id="g340">
      <path
         id="use336"
         d="m -66.177999,135.43 c 1.603,1.395 1.614,4.13 0.982,5.656 -1.548,-1.5 -1.767,-4.029 -0.982,-5.656 z"
         style="fill:#fecc00;stroke:#b99500;stroke-width:0.507;" />
      <path
         id="use338"
         d="m -65.932999,137.178 c 0.501,0.66 0.458,1.32 0.263,1.98 -0.298,-0.526 -0.475,-1.129 -0.263,-1.98 z"
         style="fill:#ff0000;" />
    </g>
    <g
       transform="matrix(-0.902875,0.085141,-0.083774,1.125251,33.01607,-127.82358)"
       id="g346">
      <path
         id="use342"
         d="m -66.177999,135.43 c 1.603,1.395 1.614,4.13 0.982,5.656 -1.548,-1.5 -1.767,-4.029 -0.982,-5.656 z"
         style="fill:#fecc00;stroke:#b99500;stroke-width:0.507;" />
      <path
         id="use344"
         d="m -65.932999,137.178 c 0.501,0.66 0.458,1.32 0.263,1.98 -0.298,-0.526 -0.475,-1.129 -0.263,-1.98 z"
         style="fill:#ff0000;" />
    </g>
    <g
       transform="matrix(-0.825416,0.37566,0.288735,1.090798,-14.91082,-109.26072)"
       id="g352">
      <path
         id="use348"
         d="m -66.177999,135.43 c 1.603,1.395 1.614,4.13 0.982,5.656 -1.548,-1.5 -1.767,-4.029 -0.982,-5.656 z"
         style="fill:#fecc00;stroke:#b99500;stroke-width:0.507;" />
      <path
         id="use350"
         d="m -65.932999,137.178 c 0.501,0.66 0.458,1.32 0.263,1.98 -0.298,-0.526 -0.475,-1.129 -0.263,-1.98 z"
         style="fill:#ff0000;" />
    </g>
  </g>
  <g
     id="g1615">
    <path
       d="m 30.15,72.81 h 28.797 v 4.114 H 30.15 Z"
       class="x y"
       id="path354" />
    <path
       d="m 44.548,67.503 -0.312,0.578 -1.725,3.207 -0.848,-1.502 -1.576,2.816 -0.746,-1.162 -3.586,6.123 h 8.793 8.793 l -3.586,-6.123 -0.746,1.162 -1.576,-2.816 -0.848,1.502 z"
       stroke="#000000"
       stroke-width="0.4"
       class="d"
       id="path356" />
    <path
       d="m 44.548,68.997 2.023,3.76 0.859,-1.525 1.539,2.748 0.758,-1.186 2.379,4.061 h -7.559 -7.559 l 2.379,-4.061 0.758,1.186 1.539,-2.748 0.859,1.525 z"
       id="path358" />
    <path
       d="m 11.688,74.184 c -0.848,0 -1.591,0.362 -2.444,0.762 -0.507,0.238 -1.056,0.482 -1.673,0.638 3.026,9.422 12.773,22.567 36.967,32.177 24.198,-9.612 33.944,-22.76 36.968,-32.182 -0.61,-0.156 -1.152,-0.398 -1.654,-0.633 -0.853,-0.399 -1.595,-0.762 -2.443,-0.762 -0.848,0 -1.59,0.362 -2.443,0.762 -0.853,0.4 -1.809,0.819 -3.026,0.797 v 0.002 l -0.016,-0.002 c -1.217,0.023 -2.177,-0.399 -3.026,-0.797 -0.849,-0.398 -1.595,-0.762 -2.443,-0.762 -0.848,0 -1.59,0.362 -2.443,0.762 -0.853,0.4 -1.813,0.821 -3.033,0.797 -1.221,0.025 -2.182,-0.398 -3.033,-0.797 -0.851,-0.399 -1.595,-0.762 -2.443,-0.762 -0.848,0 -1.591,0.362 -2.444,0.762 -0.853,0.4 -1.814,0.821 -3.035,0.797 -1.22,0.024 -2.183,-0.399 -3.033,-0.797 -0.85,-0.398 -1.595,-0.762 -2.443,-0.762 -0.848,0 -1.594,0.352 -2.445,0.744 -0.851,0.392 -1.81,0.816 -3.031,0.816 -1.221,0 -2.179,-0.424 -3.031,-0.816 -0.852,-0.392 -1.594,-0.744 -2.445,-0.744 -0.851,0 -1.594,0.352 -2.445,0.744 -0.851,0.392 -1.81,0.816 -3.031,0.816 -1.221,0 -2.18,-0.424 -3.031,-0.816 -0.851,-0.392 -1.594,-0.744 -2.445,-0.744 -0.851,0 -1.594,0.352 -2.445,0.744 -0.851,0.392 -1.81,0.816 -3.031,0.816 -1.221,0 -2.181,-0.424 -3.033,-0.816 -0.852,-0.392 -1.592,-0.744 -2.443,-0.744 z"
       class="n y"
       id="path360" />
    <path
       d="m 12.966,79.184 v 2.874 h -2.464 l 1.785,2.772 h 64.502 l 1.785,-2.772 h -2.953 v -2.874 h -3.196 v 2.874 h -1.681 -1.681 v -2.874 h -3.196 v 2.874 h -1.681 -1.681 v -2.874 h -3.196 v 2.874 h -1.681 -1.681 v -2.874 h -3.196 v 2.874 H 51.07 49.389 v -2.874 h -3.196 v 2.874 h -1.681 -1.681 v -2.874 h -3.196 v 2.874 h -1.681 -1.681 v -2.874 h -3.196 v 2.874 h -1.681 -1.681 v -2.874 h -3.196 v 2.874 h -1.681 -1.681 v -2.874 h -3.196 v 2.874 h -3.792 v -2.874 z m 0.114,6.737 0.733,0.947 h 30.7 30.75 l 0.733,-0.947 H 44.513 Z"
       class="d"
       id="path362" />
    <path
       id="use364"
       d="m 11.688,72.98 c -1.063,0 -1.927,0.442 -2.768,0.836 -0.515,0.241 -1.022,0.466 -1.577,0.6 l 0.227,0.729 c 0.618,-0.156 1.166,-0.4 1.673,-0.638 0.853,-0.399 1.596,-0.762 2.444,-0.762 0.848,0 1.592,0.352 2.443,0.744 0.851,0.392 1.812,0.816 3.033,0.816 1.221,0 2.18,-0.424 3.031,-0.816 0.851,-0.392 1.594,-0.744 2.445,-0.744 0.851,0 1.594,0.352 2.445,0.744 0.851,0.392 1.81,0.816 3.031,0.816 1.221,0 2.18,-0.424 3.031,-0.816 0.851,-0.392 1.594,-0.744 2.445,-0.744 0.851,0 1.594,0.352 2.445,0.744 0.851,0.392 1.81,0.816 3.031,0.816 1.221,0 2.18,-0.424 3.031,-0.816 0.851,-0.392 1.594,-0.744 2.445,-0.744 0.851,0 1.59,0.362 2.443,0.762 0.853,0.4 1.813,0.821 3.033,0.797 1.221,0.025 2.184,-0.398 3.035,-0.797 0.851,-0.399 1.596,-0.762 2.444,-0.762 0.848,0 1.59,0.362 2.443,0.762 0.853,0.4 1.812,0.821 3.033,0.797 1.22,0.024 2.183,-0.399 3.033,-0.797 0.85,-0.398 1.595,-0.762 2.443,-0.762 0.848,0 1.59,0.362 2.443,0.762 0.853,0.4 1.809,0.819 3.026,0.797 v 0.002 l 0.016,-0.002 c 1.217,0.023 2.177,-0.399 3.026,-0.797 0.849,-0.398 1.595,-0.762 2.443,-0.762 0.848,0 1.59,0.362 2.443,0.762 0.502,0.235 1.045,0.477 1.654,0.633 l 0.227,-0.729 C 81.181,74.277 80.679,74.054 80.17,73.816 79.329,73.422 78.466,72.98 77.403,72.98 c -1.063,0 -1.927,0.442 -2.768,0.836 -0.841,0.394 -1.66,0.747 -2.701,0.725 l -0.008,0.383 -0.008,-0.383 c -1.041,0.023 -1.86,-0.331 -2.701,-0.725 -0.841,-0.394 -1.705,-0.836 -2.768,-0.836 -1.063,0 -1.926,0.442 -2.767,0.836 -0.841,0.394 -1.66,0.747 -2.701,0.725 h -0.008 -0.009 c -1.041,0.023 -1.859,-0.331 -2.7,-0.725 -0.841,-0.394 -1.704,-0.836 -2.767,-0.836 -1.063,0 -1.927,0.442 -2.768,0.836 -0.841,0.394 -1.66,0.747 -2.701,0.725 h -0.01 -0.008 c -1.041,0.023 -1.86,-0.331 -2.701,-0.725 -0.841,-0.394 -1.705,-0.836 -2.768,-0.836 -1.063,0 -1.921,0.428 -2.764,0.816 -0.843,0.388 -1.667,0.744 -2.713,0.744 -1.046,0 -1.868,-0.356 -2.71,-0.744 -0.842,-0.388 -1.706,-0.816 -2.766,-0.816 -1.06,0 -1.923,0.428 -2.766,0.816 -0.843,0.388 -1.665,0.744 -2.711,0.744 -1.046,0 -1.869,-0.356 -2.711,-0.744 -0.842,-0.388 -1.706,-0.816 -2.766,-0.816 -1.06,0 -1.923,0.428 -2.766,0.816 -0.843,0.388 -1.665,0.744 -2.711,0.744 -1.046,0 -1.87,-0.356 -2.712,-0.744 -0.842,-0.388 -1.704,-0.816 -2.764,-0.816 z"
       style="opacity:0.993;" />
    <g
       class="d"
       id="g370"
       transform="translate(3.059,-74.058)">
      <path
         id="use366"
         d="m 8.629,147.477 c -1.063,0 -1.927,0.442 -2.768,0.836 -0.515,0.241 -1.022,0.466 -1.577,0.6 l 0.227,0.729 c 0.618,-0.156 1.166,-0.4 1.673,-0.638 0.853,-0.399 1.596,-0.762 2.444,-0.762 0.848,0 1.592,0.352 2.443,0.744 0.851,0.392 1.812,0.816 3.033,0.816 1.221,0 2.18,-0.424 3.031,-0.816 0.851,-0.392 1.594,-0.744 2.445,-0.744 0.851,0 1.594,0.352 2.445,0.744 0.851,0.392 1.81,0.816 3.031,0.816 1.221,0 2.18,-0.424 3.031,-0.816 0.851,-0.392 1.594,-0.744 2.445,-0.744 0.851,0 1.594,0.352 2.445,0.744 0.851,0.392 1.81,0.816 3.031,0.816 1.221,0 2.18,-0.424 3.031,-0.816 0.851,-0.392 1.594,-0.744 2.445,-0.744 0.851,0 1.59,0.362 2.443,0.762 0.853,0.4 1.813,0.821 3.033,0.797 1.221,0.025 2.184,-0.398 3.035,-0.797 0.851,-0.399 1.596,-0.762 2.444,-0.762 0.848,0 1.59,0.362 2.443,0.762 0.853,0.4 1.812,0.821 3.033,0.797 1.22,0.024 2.183,-0.399 3.033,-0.797 0.85,-0.398 1.595,-0.762 2.443,-0.762 0.848,0 1.59,0.362 2.443,0.762 0.853,0.4 1.809,0.819 3.026,0.797 v 0.002 l 0.016,-0.002 c 1.217,0.023 2.177,-0.399 3.026,-0.797 0.849,-0.398 1.595,-0.762 2.443,-0.762 0.848,0 1.59,0.362 2.443,0.762 0.502,0.235 1.045,0.477 1.654,0.633 l 0.227,-0.729 c -0.547,-0.134 -1.049,-0.357 -1.558,-0.595 -0.841,-0.394 -1.704,-0.836 -2.767,-0.836 -1.063,0 -1.927,0.442 -2.768,0.836 -0.841,0.394 -1.66,0.747 -2.701,0.725 l -0.008,0.383 -0.008,-0.383 c -1.041,0.023 -1.86,-0.331 -2.701,-0.725 -0.841,-0.394 -1.705,-0.836 -2.768,-0.836 -1.063,0 -1.926,0.442 -2.767,0.836 -0.841,0.394 -1.66,0.747 -2.701,0.725 h -0.008 -0.009 c -1.041,0.023 -1.859,-0.331 -2.7,-0.725 -0.841,-0.394 -1.704,-0.836 -2.767,-0.836 -1.063,0 -1.927,0.442 -2.768,0.836 -0.841,0.394 -1.66,0.747 -2.701,0.725 h -0.01 -0.008 c -1.041,0.023 -1.86,-0.331 -2.701,-0.725 -0.841,-0.394 -1.705,-0.836 -2.768,-0.836 -1.063,0 -1.921,0.428 -2.764,0.816 -0.843,0.388 -1.667,0.744 -2.713,0.744 -1.046,0 -1.868,-0.356 -2.71,-0.744 -0.842,-0.388 -1.706,-0.816 -2.766,-0.816 -1.06,0 -1.923,0.428 -2.766,0.816 -0.843,0.388 -1.665,0.744 -2.711,0.744 -1.046,0 -1.869,-0.356 -2.711,-0.744 -0.842,-0.388 -1.706,-0.816 -2.766,-0.816 -1.06,0 -1.923,0.428 -2.766,0.816 -0.843,0.388 -1.665,0.744 -2.711,0.744 -1.046,0 -1.87,-0.356 -2.712,-0.744 -0.842,-0.388 -1.704,-0.816 -2.764,-0.816 z"
         style="opacity:0.993;" />
      <path
         d="m 8.629,149.457 c -1.063,0 -1.927,0.442 -2.768,0.836 l -0.979,0.418 0.269,0.716 c 0.366,-0.134 0.708,-0.29 1.034,-0.442 0.853,-0.399 1.596,-0.762 2.444,-0.762 0.848,0 1.592,0.352 2.443,0.744 0.851,0.392 1.812,0.816 3.033,0.816 1.221,0 2.18,-0.424 3.031,-0.816 0.851,-0.392 1.594,-0.744 2.445,-0.744 0.851,0 1.594,0.352 2.445,0.744 0.851,0.392 1.81,0.816 3.031,0.816 1.221,0 2.18,-0.424 3.031,-0.816 0.851,-0.392 1.594,-0.744 2.445,-0.744 0.851,0 1.594,0.352 2.445,0.744 0.851,0.392 1.81,0.816 3.031,0.816 1.221,0 2.18,-0.424 3.031,-0.816 0.851,-0.392 1.594,-0.744 2.445,-0.744 0.851,0 1.59,0.362 2.443,0.762 0.853,0.4 1.813,0.821 3.033,0.797 1.221,0.025 2.184,-0.398 3.035,-0.797 0.851,-0.399 1.596,-0.762 2.444,-0.762 0.848,0 1.59,0.362 2.443,0.762 0.853,0.4 1.812,0.821 3.033,0.797 1.22,0.024 2.183,-0.399 3.033,-0.797 0.85,-0.398 1.595,-0.762 2.443,-0.762 0.848,0 1.59,0.362 2.443,0.762 0.853,0.4 1.809,0.819 3.026,0.797 v 0.002 l 0.016,-0.002 c 1.217,0.023 2.177,-0.399 3.026,-0.797 0.849,-0.398 1.595,-0.762 2.443,-0.762 0.848,0 1.59,0.362 2.443,0.762 l 1.016,0.436 0.269,-0.716 a 12.06,12.06 0 0 1 -0.961,-0.412 c -0.841,-0.394 -1.704,-0.836 -2.767,-0.836 -1.063,0 -1.927,0.442 -2.768,0.836 -0.841,0.394 -1.66,0.747 -2.701,0.725 l -0.008,0.383 -0.008,-0.383 c -1.041,0.023 -1.86,-0.331 -2.701,-0.725 -0.841,-0.394 -1.705,-0.836 -2.768,-0.836 -1.063,0 -1.926,0.442 -2.767,0.836 -0.841,0.394 -1.66,0.747 -2.701,0.725 h -0.008 -0.009 c -1.041,0.023 -1.859,-0.331 -2.7,-0.725 -0.841,-0.394 -1.704,-0.836 -2.767,-0.836 -1.063,0 -1.927,0.442 -2.768,0.836 -0.841,0.394 -1.66,0.747 -2.701,0.725 h -0.01 -0.008 c -1.041,0.023 -1.86,-0.331 -2.701,-0.725 -0.841,-0.394 -1.705,-0.836 -2.768,-0.836 -1.063,0 -1.921,0.428 -2.764,0.816 -0.843,0.388 -1.667,0.744 -2.713,0.744 -1.046,0 -1.868,-0.356 -2.71,-0.744 -0.842,-0.388 -1.706,-0.816 -2.766,-0.816 -1.06,0 -1.923,0.428 -2.766,0.816 -0.843,0.388 -1.665,0.744 -2.711,0.744 -1.046,0 -1.869,-0.356 -2.711,-0.744 -0.842,-0.388 -1.706,-0.816 -2.766,-0.816 -1.06,0 -1.923,0.428 -2.766,0.816 -0.843,0.388 -1.665,0.744 -2.711,0.744 -1.046,0 -1.87,-0.356 -2.712,-0.744 -0.842,-0.388 -1.704,-0.816 -2.764,-0.816 z"
         class="x"
         id="path368" />
    </g>
    <g
       stroke="#8b0000"
       class="e m"
       id="g376"
       transform="translate(3.059,-74.058)">
      <path
         d="m 60.432,162.58 v 1.536 l 1.933,-0.892 c -1.022,2.292 -3.839,3.649 -8.178,4.213 l 1.274,0.601 c -1.874,0.535 -3.818,0.975 -5.19,3.364 -0.35,0.611 -0.368,1.258 -2.379,1.983 0.564,0.226 0.987,0.429 2.082,0.743 -1.067,0.412 -2.044,0.601 -2.924,0.545 -2.123,1.428 -3.782,1.796 -5.254,1.735 -0.084,-1.874 0.759,-3.209 1.784,-4.436 -0.389,-0.969 0.012,-2.118 0.322,-3.246 0.238,0.545 0.089,1.099 0.719,1.636 2.134,-1.247 3.207,-2.694 6.666,-3.693 0.925,-0.809 0.975,-1.4 1.19,-2.032 0.168,0.524 0.548,0.949 0.15,1.734 3.188,-0.86 6.17,-1.999 7.805,-3.791 z"
         filter="url(#H)"
         class="z"
         id="path372" />
      <path
         d="m 22.546,162.58 v 1.536 l -1.933,-0.892 c 1.022,2.292 3.839,3.649 8.178,4.213 l -1.274,0.601 c 1.874,0.535 3.818,0.975 5.19,3.364 0.35,0.611 0.368,1.258 2.379,1.983 -0.564,0.226 -0.987,0.429 -2.082,0.743 1.067,0.412 2.044,0.601 2.924,0.545 2.123,1.428 3.782,1.796 5.254,1.735 0.084,-1.874 -0.759,-3.209 -1.784,-4.436 0.389,-0.969 -0.012,-2.118 -0.322,-3.246 -0.238,0.545 -0.089,1.099 -0.719,1.636 -2.134,-1.247 -3.207,-2.694 -6.666,-3.693 -0.925,-0.809 -0.975,-1.4 -1.19,-2.032 -0.168,0.524 -0.548,0.949 -0.15,1.734 -3.188,-0.86 -6.17,-1.999 -7.805,-3.791 z"
         filter="url(#H)"
         class="z"
         id="path374" />
    </g>
  </g>
</svg>
